<svg fill="none" height="24" viewBox="0 0 24 24" width="24" xmlns="http://www.w3.org/2000/svg">
    <path d="M19 22C19.5523 22 20 21.5523 20 21V20H21C21.5523 20 22 19.5523 22 19C22 18.4477 21.5523 18 21 18H20V17C20 16.4477 19.5523 16 19 16C18.4477 16 18 16.4477 18 17V18H17C16.4477 18 16 18.4477 16 19C16 19.5523 16.4477 20 17 20H18V21C18 21.5523 18.4477 22 19 22Z"
          fill="#0D0D0D"/>
    <path d="M19 22C19.5523 22 20 21.5523 20 21V20H21C21.5523 20 22 19.5523 22 19C22 18.4477 21.5523 18 21 18H20V17C20 16.4477 19.5523 16 19 16C18.4477 16 18 16.4477 18 17V18H17C16.4477 18 16 18.4477 16 19C16 19.5523 16.4477 20 17 20H18V21C18 21.5523 18.4477 22 19 22Z"
          fill="#0D0D0D"/>
    <path d="M19 22C19.5523 22 20 21.5523 20 21V20H21C21.5523 20 22 19.5523 22 19C22 18.4477 21.5523 18 21 18H20V17C20 16.4477 19.5523 16 19 16C18.4477 16 18 16.4477 18 17V18H17C16.4477 18 16 18.4477 16 19C16 19.5523 16.4477 20 17 20H18V21C18 21.5523 18.4477 22 19 22Z"
          fill="#0D0D0D"/>
    <path d="M19 22C19.5523 22 20 21.5523 20 21V20H21C21.5523 20 22 19.5523 22 19C22 18.4477 21.5523 18 21 18H20V17C20 16.4477 19.5523 16 19 16C18.4477 16 18 16.4477 18 17V18H17C16.4477 18 16 18.4477 16 19C16 19.5523 16.4477 20 17 20H18V21C18 21.5523 18.4477 22 19 22Z"
          fill="#0D0D0D"/>
    <path clip-rule="evenodd"
          d="M3 5C3 3.34315 4.34315 2 6 2H12C13.6569 2 15 3.34315 15 5V6H16C17.6569 6 19 7.34315 19 9V13C19 13.5523 18.5523 14 18 14C17.4477 14 17 13.5523 17 13V9C17 8.44772 16.5523 8 16 8H10C9.44772 8 9 8.44772 9 9V17C9 17.5523 9.44772 18 10 18H13C13.5523 18 14 18.4477 14 19C14 19.5523 13.5523 20 13 20H10C8.34315 20 7 18.6569 7 17V16H6C4.34315 16 3 14.6569 3 13V5ZM7 14V9C7 7.34315 8.34315 6 10 6H13V5C13 4.44772 12.5523 4 12 4H6C5.44772 4 5 4.44772 5 5V13C5 13.5523 5.44772 14 6 14H7Z"
          fill="#0D0D0D"
          fill-rule="evenodd"/>
</svg>
