<svg fill="none" height="24" viewBox="0 0 24 24" width="24" xmlns="http://www.w3.org/2000/svg">
    <path clip-rule="evenodd"
          d="M12 7C11.45 7 11 7.45 11 8V11H8C7.45 11 7 11.45 7 12C7 12.55 7.45 13 8 13H11V16C11 16.55 11.45 17 12 17C12.55 17 13 16.55 13 16V13H16C16.55 13 17 12.55 17 12C17 11.45 16.55 11 16 11H13V8C13 7.45 12.55 7 12 7Z"
          fill="#0D0D0D"
          fill-rule="evenodd"/>
    <path clip-rule="evenodd"
          d="M12 20C16.4183 20 20 16.4183 20 12C20 7.58172 16.4183 4 12 4C7.58172 4 4 7.58172 4 12C4 16.4183 7.58172 20 12 20ZM12 22C17.5228 22 22 17.5228 22 12C22 6.47715 17.5228 2 12 2C6.47715 2 2 6.47715 2 12C2 17.5228 6.47715 22 12 22Z"
          fill="#0D0D0D"
          fill-rule="evenodd"/>
</svg>
