<svg fill="none" height="24" viewBox="0 0 24 24" width="24" xmlns="http://www.w3.org/2000/svg">
    <path clip-rule="evenodd"
          d="M18 4H6C5.44771 4 5 4.44772 5 5V19C5 19.5523 5.44772 20 6 20H18C18.5523 20 19 19.5523 19 19V5C19 4.44772 18.5523 4 18 4ZM6 2C4.34315 2 3 3.34315 3 5V19C3 20.6569 4.34315 22 6 22H18C19.6569 22 21 20.6569 21 19V5C21 3.34315 19.6569 2 18 2H6Z"
          fill="#0D0D0D"
          fill-rule="evenodd"/>
    <path clip-rule="evenodd" d="M8 6C7.44772 6 7 6.44772 7 7V9C7 9.55228 7.44772 10 8 10H16C16.5523 10 17 9.55228 17 9V7C17 6.44772 16.5523 6 16 6H8Z"
          fill="#0D0D0D" fill-rule="evenodd"/>
    <path d="M7 12.5C7 12.2239 7.22386 12 7.5 12H8.5C8.77614 12 9 12.2239 9 12.5V13.5C9 13.7761 8.77614 14 8.5 14H7.5C7.22386 14 7 13.7761 7 13.5V12.5Z"
          fill="#0D0D0D"/>
    <path d="M7 16.5C7 16.2239 7.22386 16 7.5 16H8.5C8.77614 16 9 16.2239 9 16.5V17.5C9 17.7761 8.77614 18 8.5 18H7.5C7.22386 18 7 17.7761 7 17.5V16.5Z"
          fill="#0D0D0D"/>
    <path d="M11 12.5C11 12.2239 11.2239 12 11.5 12H12.5C12.7761 12 13 12.2239 13 12.5V13.5C13 13.7761 12.7761 14 12.5 14H11.5C11.2239 14 11 13.7761 11 13.5V12.5Z"
          fill="#0D0D0D"/>
    <path d="M11 16.5C11 16.2239 11.2239 16 11.5 16H12.5C12.7761 16 13 16.2239 13 16.5V17.5C13 17.7761 12.7761 18 12.5 18H11.5C11.2239 18 11 17.7761 11 17.5V16.5Z"
          fill="#0D0D0D"/>
    <path d="M15 12.5C15 12.2239 15.2239 12 15.5 12H16.5C16.7761 12 17 12.2239 17 12.5V13.5C17 13.7761 16.7761 14 16.5 14H15.5C15.2239 14 15 13.7761 15 13.5V12.5Z"
          fill="#0D0D0D"/>
    <path d="M15 16.5C15 16.2239 15.2239 16 15.5 16H16.5C16.7761 16 17 16.2239 17 16.5V17.5C17 17.7761 16.7761 18 16.5 18H15.5C15.2239 18 15 17.7761 15 17.5V16.5Z"
          fill="#0D0D0D"/>
</svg>
