<svg fill="none" height="24" viewBox="0 0 24 24" width="24" xmlns="http://www.w3.org/2000/svg">
    <mask fill="white" id="path-1-inside-1_18_145">
        <path d="M16 3C16 2.44772 16.4477 2 17 2H21C21.5523 2 22 2.44772 22 3V22H16V3Z"/>
        <path d="M9 13C9 12.4477 9.44772 12 10 12H14C14.5523 12 15 12.4477 15 13V22H9V13Z"/>
        <path d="M2 9C2 8.44772 2.44772 8 3 8H7C7.55228 8 8 8.44772 8 9V22H2V9Z"/>
    </mask>
    <path d="M22 22V24H24V22H22ZM16 22H14V24H16V22ZM15 22V24H17V22H15ZM9 22H7V24H9V22ZM8 22V24H10V22H8ZM2 22H0V24H2V22ZM17 4H21V0H17V4ZM20 3V22H24V3H20ZM22 20H16V24H22V20ZM18 22V3H14V22H18ZM21 4C20.4477 4 20 3.55228 20 3H24C24 1.34315 22.6569 0 21 0V4ZM17 0C15.3431 0 14 1.34315 14 3H18C18 3.55228 17.5523 4 17 4V0ZM10 14H14V10H10V14ZM13 13V22H17V13H13ZM15 20H9V24H15V20ZM11 22V13H7V22H11ZM14 14C13.4477 14 13 13.5523 13 13H17C17 11.3431 15.6569 10 14 10V14ZM10 10C8.34315 10 7 11.3431 7 13H11C11 13.5523 10.5523 14 10 14V10ZM3 10H7V6H3V10ZM6 9V22H10V9H6ZM8 20H2V24H8V20ZM4 22V9H0V22H4ZM7 10C6.44772 10 6 9.55228 6 9H10C10 7.34315 8.65685 6 7 6V10ZM3 6C1.34314 6 0 7.34315 0 9H4C4 9.55228 3.55229 10 3 10V6Z"
          fill="#0D0D0D" mask="url(#path-1-inside-1_18_145)"/>
</svg>
