<svg width="16" height="16" viewBox="0 0 16 16" fill="none" xmlns="http://www.w3.org/2000/svg">
<path fill-rule="evenodd" clip-rule="evenodd" d="M11.9283 3.53501C11.6683 3.27501 11.2483 3.27501 10.9883 3.53501L7.72831 6.78834L4.46831 3.52834C4.20831 3.26834 3.78831 3.26834 3.52831 3.52834C3.26831 3.78834 3.26831 4.20834 3.52831 4.46834L6.78831 7.72834L3.52831 10.9883C3.26831 11.2483 3.26831 11.6683 3.52831 11.9283C3.78831 12.1883 4.20831 12.1883 4.46831 11.9283L7.72831 8.66834L10.9883 11.9283C11.2483 12.1883 11.6683 12.1883 11.9283 11.9283C12.1883 11.6683 12.1883 11.2483 11.9283 10.9883L8.66831 7.72834L11.9283 4.46834C12.1816 4.21501 12.1816 3.78834 11.9283 3.53501Z" fill="#0D0D0D"/>
</svg>
