<svg fill="none" height="24" viewBox="0 0 24 24" width="24" xmlns="http://www.w3.org/2000/svg">
    <path clip-rule="evenodd" d="M17 2H5C3.34315 2 2 3.34315 2 5V15C2 16.6569 3.34315 18 5 18H10V20C10 21.1046 10.8954 22 12 22H20C21.1046 22 22 21.1046 22 20V10C22 8.89543 21.1046 8 20 8V5C20 3.34315 18.6569 2 17 2ZM5 4H17C17.5523 4 18 4.44772 18 5V8H12C10.8954 8 10 8.89543 10 10V16H5C4.44772 16 4 15.5523 4 15V5C4 4.44772 4.44772 4 5 4ZM12 12V10H20V12H12ZM20 20H12V18H20V20ZM12 16H20V15V14H12V16Z"
          fill="#0D0D0D"
          fill-rule="evenodd"/>
</svg>
