<svg fill="none" height="24" viewBox="0 0 24 24" width="24" xmlns="http://www.w3.org/2000/svg">
    <path clip-rule="evenodd"
          d="M3.08996 4.58545C3.2524 4.22886 3.60814 4 3.99998 4H20C20.3918 4 20.7476 4.22886 20.91 4.58545C21.0725 4.94204 21.0117 5.36064 20.7545 5.65629L14.6 12.7318V19C14.6 19.3446 14.4226 19.6649 14.1305 19.8477C13.8384 20.0305 13.4727 20.05 13.1628 19.8994L9.96279 18.3438C9.61851 18.1765 9.39999 17.8272 9.39999 17.4444V12.7318L3.24548 5.65629C2.98831 5.36064 2.92752 4.94204 3.08996 4.58545ZM6.19518 6L11.1545 11.7015C11.3128 11.8835 11.4 12.1166 11.4 12.3578V16.8187L12.6 17.402V12.3578C12.6 12.1166 12.6872 11.8835 12.8455 11.7015L17.8048 6H6.19518Z"
          fill="#0D0D0D"
          fill-rule="evenodd"/>
</svg>
