<svg fill="none" height="24" viewBox="0 0 24 24" width="24" xmlns="http://www.w3.org/2000/svg">
    <path clip-rule="evenodd" d="M12 3C12.5523 3 13 3.44772 13 4V20C13 20.5523 12.5523 21 12 21C11.4477 21 11 20.5523 11 20V4C11 3.44772 11.4477 3 12 3Z"
          fill="#0D0D0D" fill-rule="evenodd"/>
    <path clip-rule="evenodd"
          d="M3.2 8.4C3.53137 7.95817 4.15817 7.86863 4.6 8.2L8.6 11.2C8.8518 11.3889 9 11.6852 9 12C9 12.3148 8.8518 12.6111 8.6 12.8L4.6 15.8C4.15817 16.1314 3.53137 16.0418 3.2 15.6C2.86863 15.1582 2.95817 14.5314 3.4 14.2L6.33333 12L3.4 9.8C2.95817 9.46863 2.86863 8.84183 3.2 8.4Z"
          fill="#0D0D0D"
          fill-rule="evenodd"/>
    <path clip-rule="evenodd"
          d="M20.8 15.6C20.4686 16.0418 19.8418 16.1314 19.4 15.8L15.4 12.8C15.1482 12.6111 15 12.3148 15 12C15 11.6852 15.1482 11.3889 15.4 11.2L19.4 8.2C19.8418 7.86863 20.4686 7.95817 20.8 8.4C21.1314 8.84183 21.0418 9.46863 20.6 9.8L17.6667 12L20.6 14.2C21.0418 14.5314 21.1314 15.1582 20.8 15.6Z"
          fill="#0D0D0D"
          fill-rule="evenodd"/>
</svg>
