<svg fill="none" height="24" viewBox="0 0 24 24" width="24" xmlns="http://www.w3.org/2000/svg">
    <path clip-rule="evenodd"
          d="M2 5C2 3.34315 3.34315 2 5 2H17C18.6569 2 20 3.34315 20 5V10C20 10.5523 19.5523 11 19 11C18.4477 11 18 10.5523 18 10V5C18 4.44772 17.5523 4 17 4H5C4.44772 4 4 4.44772 4 5V19C4 19.5523 4.44772 20 5 20H10C10.5523 20 11 20.4477 11 21C11 21.5523 10.5523 22 10 22H5C3.34315 22 2 20.6569 2 19V5ZM6 7C6 6.44772 6.44772 6 7 6H15C15.5523 6 16 6.44772 16 7C16 7.55228 15.5523 8 15 8H7C6.44772 8 6 7.55228 6 7ZM6 11C6 10.4477 6.44772 10 7 10H15C15.5523 10 16 10.4477 16 11C16 11.5523 15.5523 12 15 12H7C6.44772 12 6 11.5523 6 11ZM6 15C6 14.4477 6.44772 14 7 14H10C10.5523 14 11 14.4477 11 15C11 15.5523 10.5523 16 10 16H7C6.44772 16 6 15.5523 6 15Z"
          fill="#0D0D0D"
          fill-rule="evenodd"/>
    <path d="M18.8692 18.8605C19.3905 18.6841 20.0078 19.1617 20.1302 19.6983C20.1811 19.9217 20.1385 20.1604 19.975 20.3591C19.5054 20.9299 18.8989 21.3803 18.2054 21.6643C17.2007 22.0758 16.0812 22.1101 15.0532 21.7611C14.0252 21.4121 13.1581 20.7032 12.6116 19.7651C12.0652 18.827 11.8763 17.723 12.0797 16.6566C12.2832 15.5903 12.8653 14.6334 13.7188 13.9624C14.5722 13.2914 15.6394 12.9516 16.7237 13.0056C17.808 13.0595 18.8362 13.5037 19.6188 14.2561C20.159 14.7755 20.5571 15.4176 20.7836 16.1212C20.9529 16.6472 20.536 17.1396 19.9856 17.1888C19.4352 17.2379 18.9653 16.8129 18.7055 16.3251C18.5826 16.0944 18.4233 15.8827 18.2319 15.6986C17.7973 15.2808 17.2263 15.0342 16.6242 15.0042C16.0221 14.9742 15.4295 15.1629 14.9555 15.5355C14.4816 15.9081 14.1584 16.4395 14.0454 17.0317C13.9324 17.6239 14.0373 18.2369 14.3408 18.7578C14.6442 19.2787 15.1257 19.6724 15.6966 19.8662C16.2674 20.06 16.8891 20.041 17.447 19.8125C17.6927 19.7119 17.9188 19.5736 18.118 19.4044C18.3495 19.2077 18.5929 18.954 18.8692 18.8605Z"
          fill="#0D0D0D"/>
    <path clip-rule="evenodd"
          d="M20.6644 13.0136C21.2092 13.1044 21.5772 13.6196 21.4864 14.1644L20.9864 17.1644C20.9419 17.4315 20.7909 17.6692 20.568 17.823C20.3452 17.9768 20.0694 18.0337 19.8039 17.9806L17.3039 17.4806C16.7623 17.3723 16.4111 16.8454 16.5194 16.3039C16.6277 15.7623 17.1546 15.4111 17.6961 15.5194L19.1834 15.8169L19.5136 13.8356C19.6044 13.2908 20.1196 12.9228 20.6644 13.0136Z"
          fill="#0D0D0D"
          fill-rule="evenodd"/>
</svg>
