<svg fill="none" height="24" viewBox="0 0 24 24" width="24" xmlns="http://www.w3.org/2000/svg">
    <path clip-rule="evenodd"
          d="M15 4C15 2.89543 15.8954 2 17 2H20C21.1046 2 22 2.89543 22 4V9C22 10.1046 21.1046 11 20 11H17C15.8954 11 15 10.1046 15 9V7.5C14.1716 7.5 13.5 8.17157 13.5 9V11V13V15.5C13.5 16.0523 13.9477 16.5 14.5 16.5H15V15C15 13.8954 15.8954 13 17 13H20C21.1046 13 22 13.8954 22 15V20C22 21.1046 21.1046 22 20 22H17C15.8954 22 15 21.1046 15 20V18.5H14.5C12.8431 18.5 11.5 17.1569 11.5 15.5V13H10V18C10 19.1046 9.10457 20 8 20H4C2.89543 20 2 19.1046 2 18V6C2 4.89543 2.89543 4 4 4H8C9.10457 4 10 4.89543 10 6V11H10.75H11.5V9C11.5 7.067 13.067 5.5 15 5.5V4ZM20 4H17V9H20V4ZM8 6H4V18H8V6ZM20 15H17V20H20V15Z"
          fill="#0D0D0D"
          fill-rule="evenodd"/>
</svg>
