<svg fill="none" height="24" viewBox="0 0 24 24" width="24" xmlns="http://www.w3.org/2000/svg">
    <path clip-rule="evenodd"
          d="M14 9.01V3C14 2.45 14.45 2 15 2C15.55 2 16 2.45 16 3V9.01H17.79C18.24 9.01 18.46 9.55 18.14 9.86L15.35 12.64C15.15 12.83 14.84 12.83 14.64 12.64L11.85 9.86C11.53 9.55 11.76 9.01 12.2 9.01H14Z"
          fill="#0D0D0D"
          fill-rule="evenodd"/>
    <path clip-rule="evenodd"
          d="M11.79 14.99H10V21C10 21.55 9.55 22 9 22C8.45 22 8 21.55 8 21V14.99H6.21C5.76 14.99 5.54 14.45 5.86 14.14L8.65 11.36C8.85 11.17 9.16 11.17 9.36 11.36L12.15 14.14C12.46 14.45 12.24 14.99 11.79 14.99Z"
          fill="#0D0D0D"
          fill-rule="evenodd"/>
</svg>
