<svg width="16" height="16" viewBox="0 0 16 16" fill="none" xmlns="http://www.w3.org/2000/svg">
<path fill-rule="evenodd" clip-rule="evenodd" d="M2 10C2 9.63181 2.29848 9.33333 2.66667 9.33333L6.66667 9.33333C6.77016 9.33333 6.87224 9.35743 6.96481 9.40371L9.49071 10.6667L10 10.6667L10 5.33333L9.49071 5.33333L6.96481 6.59628C6.87224 6.64257 6.77016 6.66667 6.66667 6.66667L2.66667 6.66667C2.29848 6.66667 2 6.36819 2 6C2 5.63181 2.29848 5.33333 2.66667 5.33333L6.50929 5.33333L9.03519 4.07038C9.12776 4.0241 9.22984 4 9.33333 4L10.6667 4C11.0349 4 11.3333 4.29848 11.3333 4.66667L11.3333 11.3333C11.3333 11.7015 11.0349 12 10.6667 12L9.33333 12C9.22984 12 9.12776 11.9759 9.03519 11.9296L6.50929 10.6667L2.66667 10.6667C2.29848 10.6667 2 10.3682 2 10Z" fill="#0D0D0D"/>
<path fill-rule="evenodd" clip-rule="evenodd" d="M10 8C10 7.63181 10.2985 7.33333 10.6667 7.33333L14 7.33333C14.3682 7.33333 14.6667 7.63181 14.6667 8C14.6667 8.36819 14.3682 8.66667 14 8.66667L10.6667 8.66667C10.2985 8.66667 10 8.36819 10 8Z" fill="#0D0D0D"/>
<path fill-rule="evenodd" clip-rule="evenodd" d="M2.66667 11.3333C2.29848 11.3333 2 11.0349 2 10.6667L2 5.33333C2 4.96514 2.29848 4.66667 2.66667 4.66667C3.03486 4.66667 3.33333 4.96514 3.33333 5.33333L3.33333 10.6667C3.33333 11.0349 3.03486 11.3333 2.66667 11.3333Z" fill="#0D0D0D"/>
</svg>
