<svg fill="none" height="212" viewBox="0 0 330 212" width="330" xmlns="http://www.w3.org/2000/svg">
    <path d="M112 6C112 2.68629 114.686 0 118 0H212C215.314 0 218 2.68629 218 6V97C218 100.314 215.314 103 212 103H118C114.686 103 112 100.314 112 97V6Z"
          fill="#DFDFDF"/>
    <path d="M112 115C112 111.686 114.686 109 118 109H212C215.314 109 218 111.686 218 115V206C218 209.314 215.314 212 212 212H118C114.686 212 112 209.314 112 206V115Z"
          fill="#DFDFDF"/>
    <path d="M0 6C0 2.68629 2.68629 0 6 0H100C103.314 0 106 2.68629 106 6V206C106 209.314 103.314 212 100 212H6C2.68629 212 0 209.314 0 206V6Z" fill="#DFDFDF"/>
    <path d="M224 6C224 2.68629 226.686 0 230 0H324C327.314 0 330 2.68629 330 6V206C330 209.314 327.314 212 324 212H230C226.686 212 224 209.314 224 206V6Z"
          fill="#DFDFDF"/>
</svg>
