<svg fill="none" height="24" viewBox="0 0 24 24" width="24" xmlns="http://www.w3.org/2000/svg">
    <path clip-rule="evenodd"
          d="M13.21 16.29C12.82 16.68 12.19 16.68 11.8 16.29L8.21 12.7C7.82 12.31 7.82 11.68 8.21 11.29L11.8 7.7C12.19 7.31 12.82 7.31 13.21 7.7C13.6 8.09 13.6 8.72 13.21 9.11L11.33 11H20C20.55 11 21 11.45 21 12C21 12.55 20.55 13 20 13H11.33L13.21 14.88C13.6 15.27 13.59 15.91 13.21 16.29Z"
          fill="#0D0D0D"
          fill-rule="evenodd"/>
    <path clip-rule="evenodd"
          d="M5 3H19C20.11 3 21 3.9 21 5V8C21 8.55 20.55 9 20 9C19.45 9 19 8.55 19 8V6C19 5.45 18.55 5 18 5H6C5.45 5 5 5.45 5 6V18C5 18.55 5.45 19 6 19H18C18.55 19 19 18.55 19 18V16C19 15.45 19.45 15 20 15C20.55 15 21 15.45 21 16V19C21 20.1 20.1 21 19 21H5C3.9 21 3 20.1 3 19V5C3 3.9 3.9 3 5 3Z"
          fill="#0D0D0D"
          fill-rule="evenodd"/>
</svg>
