<svg fill="none" height="24" viewBox="0 0 24 24" width="24" xmlns="http://www.w3.org/2000/svg">
    <path clip-rule="evenodd" d="M4 10.5C3.17 10.5 2.5 11.17 2.5 12C2.5 12.83 3.17 13.5 4 13.5C4.83 13.5 5.5 12.83 5.5 12C5.5 11.17 4.83 10.5 4 10.5Z"
          fill="#0D0D0D" fill-rule="evenodd"/>
    <path clip-rule="evenodd" d="M4 4.5C3.17 4.5 2.5 5.17 2.5 6C2.5 6.83 3.17 7.5 4 7.5C4.83 7.5 5.5 6.83 5.5 6C5.5 5.17 4.83 4.5 4 4.5Z" fill="#0D0D0D"
          fill-rule="evenodd"/>
    <path clip-rule="evenodd" d="M4 16.5C3.17 16.5 2.5 17.18 2.5 18C2.5 18.82 3.18 19.5 4 19.5C4.82 19.5 5.5 18.82 5.5 18C5.5 17.18 4.83 16.5 4 16.5Z"
          fill="#0D0D0D" fill-rule="evenodd"/>
    <path clip-rule="evenodd" d="M7 19H21V17H7V19Z" fill="#0D0D0D" fill-rule="evenodd"/>
    <path clip-rule="evenodd" d="M7 13H21V11H7V13Z" fill="#0D0D0D" fill-rule="evenodd"/>
    <path clip-rule="evenodd" d="M7 5V7H21V5H7Z" fill="#0D0D0D" fill-rule="evenodd"/>
</svg>
