<svg fill="none" height="24" viewBox="0 0 24 24" width="24" xmlns="http://www.w3.org/2000/svg">
    <path clip-rule="evenodd"
          d="M5 2C3.34315 2 2 3.34315 2 5V15C2 16.6569 3.34315 18 5 18H8V19C8 20.6569 9.34315 22 11 22H19C20.6569 22 22 20.6569 22 19V13C22 11.6938 21.1652 10.5825 20 10.1707V5C20 3.34315 18.6569 2 17 2H5ZM5 4H17C17.5523 4 18 4.44772 18 5V6H4V5C4 4.44772 4.44772 4 5 4ZM4 15C4 15.5523 4.44772 16 5 16H8V13C8 11.3431 9.34315 10 11 10H18V8H4V15ZM10 13C10 12.4477 10.4477 12 11 12H19C19.5523 12 20 12.4477 20 13V14H10V13ZM10 19C10 19.5523 10.4477 20 11 20H19C19.5523 20 20 19.5523 20 19V16H10V19Z"
          fill="#0D0D0D"
          fill-rule="evenodd"/>
</svg>
