<svg width="16" height="16" viewBox="0 0 16 16" fill="none" xmlns="http://www.w3.org/2000/svg">
<path fill-rule="evenodd" clip-rule="evenodd" d="M6 2C6.36819 2 6.66667 2.29848 6.66667 2.66667V6.66667C6.66667 6.77016 6.64257 6.87224 6.59628 6.96481L5.33333 9.49071V10H10.6667V9.49071L9.40372 6.96481C9.35743 6.87224 9.33333 6.77016 9.33333 6.66667V2.66667C9.33333 2.29848 9.63181 2 10 2C10.3682 2 10.6667 2.29848 10.6667 2.66667V6.50929L11.9296 9.03519C11.9759 9.12776 12 9.22984 12 9.33333V10.6667C12 11.0349 11.7015 11.3333 11.3333 11.3333H4.66667C4.29848 11.3333 4 11.0349 4 10.6667V9.33333C4 9.22984 4.0241 9.12776 4.07038 9.03519L5.33333 6.50929V2.66667C5.33333 2.29848 5.63181 2 6 2Z" fill="#0D0D0D"/>
<path fill-rule="evenodd" clip-rule="evenodd" d="M8 10C8.36819 10 8.66667 10.2985 8.66667 10.6667V14C8.66667 14.3682 8.36819 14.6667 8 14.6667C7.63181 14.6667 7.33333 14.3682 7.33333 14V10.6667C7.33333 10.2985 7.63181 10 8 10Z" fill="#0D0D0D"/>
<path fill-rule="evenodd" clip-rule="evenodd" d="M4.66667 2.66667C4.66667 2.29848 4.96514 2 5.33333 2H10.6667C11.0349 2 11.3333 2.29848 11.3333 2.66667C11.3333 3.03486 11.0349 3.33333 10.6667 3.33333H5.33333C4.96514 3.33333 4.66667 3.03486 4.66667 2.66667Z" fill="#0D0D0D"/>
</svg>
