<svg fill="none" height="24" viewBox="0 0 24 24" width="24" xmlns="http://www.w3.org/2000/svg">
    <path d="M17 9C17 8.46957 16.7893 7.96086 16.4142 7.58579C16.0391 7.21071 15.5304 7 15 7" stroke="#0D0D0D" stroke-linecap="round" stroke-linejoin="round"
          stroke-width="2"/>
    <path d="M18.514 13.862C17.7649 14.404 16.9006 14.7655 15.9887 14.9183C15.0768 15.0712 14.1419 15.0112 13.257 14.743L13 15L11.293 16.707C11.1055 16.8946 10.8512 17 10.586 17H10C9.73478 17 9.48043 17.1054 9.29289 17.2929C9.10536 17.4804 9 17.7348 9 18C9 18.2652 8.89464 18.5196 8.70711 18.7071C8.51957 18.8947 8.26522 19 8 19C7.73478 19 7.48043 19.1054 7.29289 19.2929C7.10536 19.4804 7 19.7348 7 20C7 20.2652 6.89464 20.5196 6.70711 20.7071C6.51957 20.8947 6.26522 21 6 21H4C3.73478 21 3.48043 20.8947 3.29289 20.7071C3.10536 20.5196 3 20.2652 3 20V17.414C3.00006 17.1488 3.10545 16.8945 3.293 16.707L9 11L9.257 10.743C8.93681 9.68838 8.91331 8.56593 9.18906 7.49882C9.46481 6.4317 10.0292 5.46116 10.8202 4.69369C11.6113 3.92621 12.5984 3.39144 13.6734 3.14807C14.7483 2.9047 15.8696 2.96212 16.914 3.31404C17.9585 3.66596 18.8858 4.29877 19.5943 5.14305C20.3028 5.98733 20.7651 7.01045 20.9304 8.10015C21.0957 9.18985 20.9576 10.304 20.5314 11.3204C20.1051 12.3368 19.4071 13.2162 18.514 13.862V13.862Z"
          stroke="#0D0D0D" stroke-linecap="round" stroke-linejoin="round" stroke-width="2"/>
</svg>
