<svg fill="none" height="24" viewBox="0 0 24 24" width="24" xmlns="http://www.w3.org/2000/svg">
    <path clip-rule="evenodd"
          d="M9 20C9 21.1046 8.10457 22 7 22H4C2.89543 22 2 21.1046 2 20V15C2 13.8954 2.89543 13 4 13H7C8.10457 13 9 13.8954 9 15V16.5C9.82843 16.5 10.5 15.8284 10.5 15V13V11V8.5C10.5 7.94772 10.0523 7.5 9.5 7.5H9V9C9 10.1046 8.10457 11 7 11H4C2.89543 11 2 10.1046 2 9V4C2 2.89543 2.89543 2 4 2H7C8.10457 2 9 2.89543 9 4V5.5H9.5C11.1569 5.5 12.5 6.84315 12.5 8.5V11H14V6C14 4.89543 14.8954 4 16 4H20C21.1046 4 22 4.89543 22 6V18C22 19.1046 21.1046 20 20 20H16C14.8954 20 14 19.1046 14 18V13H12.5V15C12.5 16.933 10.933 18.5 9 18.5V20ZM4 20H7V15H4V20ZM16 18H20V6H16V18ZM4 9H7V4H4V9Z"
          fill="#0D0D0D"
          fill-rule="evenodd"/>
</svg>
