<svg fill="none" height="212" viewBox="0 0 330 212" width="330" xmlns="http://www.w3.org/2000/svg">
    <path d="M168 6C168 2.68629 170.686 0 174 0H324C327.314 0 330 2.68629 330 6V97C330 100.314 327.314 103 324 103H174C170.686 103 168 100.314 168 97V6Z"
          fill="#DFDFDF"/>
    <path d="M168 115C168 111.686 170.686 109 174 109H324C327.314 109 330 111.686 330 115V206C330 209.314 327.314 212 324 212H174C170.686 212 168 209.314 168 206V115Z"
          fill="#DFDFDF"/>
    <path d="M0 6C0 2.68629 2.68629 0 6 0H156C159.314 0 162 2.68629 162 6V206C162 209.314 159.314 212 156 212H6C2.68629 212 0 209.314 0 206V6Z" fill="#DFDFDF"/>
</svg>
