<svg fill="none" height="212" viewBox="0 0 330 212" width="330" xmlns="http://www.w3.org/2000/svg">
    <path d="M112 115C112 111.686 114.686 109 118 109H212C215.314 109 218 111.686 218 115V206C218 209.314 215.314 212 212 212H118C114.686 212 112 209.314 112 206V115Z"
          fill="#DFDFDF"/>
    <path d="M224 115C224 111.686 226.686 109 230 109H324C327.314 109 330 111.686 330 115V206C330 209.314 327.314 212 324 212H230C226.686 212 224 209.314 224 206V115Z"
          fill="#DFDFDF"/>
    <path d="M0 115C0 111.686 2.68629 109 6 109H100C103.314 109 106 111.686 106 115V206C106 209.314 103.314 212 100 212H6C2.68629 212 0 209.314 0 206V115Z"
          fill="#DFDFDF"/>
    <path d="M0 6C0 2.68629 2.68629 0 6 0H324C327.314 0 330 2.68629 330 6V97C330 100.314 327.314 103 324 103H5.99999C2.68629 103 0 100.314 0 97V6Z"
          fill="#DFDFDF"/>
</svg>
