<svg fill="none" height="212" viewBox="0 0 330 212" width="330" xmlns="http://www.w3.org/2000/svg">
    <path d="M0 115C0 111.686 2.68629 109 6 109H324C327.314 109 330 111.686 330 115V206C330 209.314 327.314 212 324 212H5.99999C2.68629 212 0 209.314 0 206V115Z"
          fill="#DFDFDF"/>
    <path d="M0 6C0 2.68629 2.68629 0 6 0H156C159.314 0 162 2.68629 162 6V97C162 100.314 159.314 103 156 103H6C2.68629 103 0 100.314 0 97V6Z" fill="#DFDFDF"/>
    <path d="M168 6C168 2.68629 170.686 0 174 0H324C327.314 0 330 2.68629 330 6V97C330 100.314 327.314 103 324 103H174C170.686 103 168 100.314 168 97V6Z"
          fill="#DFDFDF"/>
</svg>
