<svg fill="none" height="24" viewBox="0 0 24 24" width="24" xmlns="http://www.w3.org/2000/svg">
    <path clip-rule="evenodd"
          d="M12 4C11.4477 4 11 4.44772 11 5V6C12.6569 6 14 7.34315 14 9V9.5C14 10.0523 13.5523 10.5 13 10.5C12.4477 10.5 12 10.0523 12 9.5V9C12 8.44772 11.5523 8 11 8H5C4.44772 8 4 8.44772 4 9V17C4 17.5523 4.44772 18 5 18H9C9.55228 18 10 18.4477 10 19C10 19.5523 9.55228 20 9 20H5C3.34315 20 2 18.6569 2 17V9C2 7.34315 3.34315 6 5 6H9V5C9 3.34315 10.3431 2 12 2H18C19.6569 2 21 3.34315 21 5V7C21 7.55228 20.5523 8 20 8C19.4477 8 19 7.55228 19 7V5C19 4.44772 18.5523 4 18 4H12Z"
          fill="#0D0D0D"
          fill-rule="evenodd"/>
    <path clip-rule="evenodd" d="M12 13C12 12.4477 12.4477 12 13 12H21C21.5523 12 22 12.4477 22 13C22 13.5523 21.5523 14 21 14H13C12.4477 14 12 13.5523 12 13Z"
          fill="#0D0D0D" fill-rule="evenodd"/>
    <path clip-rule="evenodd"
          d="M18.2929 10.2929C18.6834 9.90237 19.3166 9.90237 19.7071 10.2929L21.7071 12.2929V13.7071L19.7071 15.7071C19.3166 16.0976 18.6834 16.0976 18.2929 15.7071C17.9024 15.3166 17.9024 14.6834 18.2929 14.2929L19.5858 13L18.2929 11.7071C17.9024 11.3166 17.9024 10.6834 18.2929 10.2929Z"
          fill="#0D0D0D"
          fill-rule="evenodd"/>
    <path clip-rule="evenodd" d="M22 19C22 18.4477 21.5523 18 21 18H13C12.4477 18 12 18.4477 12 19C12 19.5523 12.4477 20 13 20H21C21.5523 20 22 19.5523 22 19Z"
          fill="#0D0D0D" fill-rule="evenodd"/>
    <path clip-rule="evenodd"
          d="M15.7071 16.2929C15.3166 15.9024 14.6834 15.9024 14.2929 16.2929L12.2929 18.2929C11.9024 18.6834 11.9024 19.3166 12.2929 19.7071L14.2929 21.7071C14.6834 22.0976 15.3166 22.0976 15.7071 21.7071C16.0976 21.3166 16.0976 20.6834 15.7071 20.2929L14.4142 19L15.7071 17.7071C16.0976 17.3166 16.0976 16.6834 15.7071 16.2929Z"
          fill="#0D0D0D"
          fill-rule="evenodd"/>
</svg>
