<svg fill="none" height="24" viewBox="0 0 24 24" width="24" xmlns="http://www.w3.org/2000/svg">
    <path clip-rule="evenodd"
          d="M9.78355 5.4575C8.70981 5.96497 8 6.85966 8 8.20762C8 8.75991 7.55228 9.20762 7 9.20762C6.44772 9.20762 6 8.75991 6 8.20762C6 5.97285 7.26445 4.43596 8.92894 3.64928C10.5483 2.88393 12.5621 2.80618 14.3061 3.35806C15.4406 3.71706 16.5502 4.42323 17.2588 5.5275C17.9835 6.65681 18.2214 8.09901 17.7716 9.7667C17.5137 10.7234 16.9717 11.4013 16.3776 11.9263C15.9518 12.3027 15.4467 12.64 15.0101 12.9316C14.877 13.0205 14.7502 13.1051 14.634 13.1853C14.0905 13.5605 13.6724 13.9007 13.3791 14.318C13.1036 14.7099 12.9031 15.2215 12.9031 16C12.9031 16.5522 12.4554 17 11.9031 17C11.3508 17 10.9031 16.5522 10.9031 16C10.9031 14.8303 11.2192 13.9129 11.7428 13.1679C12.2486 12.4483 12.912 11.9438 13.498 11.5393C13.6724 11.4189 13.8359 11.3096 13.9902 11.2064C14.3951 10.9357 14.7375 10.7067 15.0531 10.4278C15.4505 10.0765 15.7138 9.71624 15.8406 9.24597C16.1605 8.05975 15.9619 7.20972 15.5756 6.60766C15.1732 5.98059 14.4971 5.51627 13.7027 5.26487C12.3908 4.84974 10.9024 4.9287 9.78355 5.4575Z"
          fill="#0D0D0D"
          fill-rule="evenodd"/>
    <path d="M13.5 19.5C13.5 20.3284 12.8284 21 12 21C11.1716 21 10.5 20.3284 10.5 19.5C10.5 18.6715 11.1716 18 12 18C12.8284 18 13.5 18.6715 13.5 19.5Z"
          fill="#0D0D0D"/>
</svg>
