<svg width="24" height="24" viewBox="0 0 24 24" fill="none" xmlns="http://www.w3.org/2000/svg">
<path fill-rule="evenodd" clip-rule="evenodd" d="M2 12C2 6.48 6.48 2 12 2C17.52 2 22 6.48 22 12C22 17.52 17.52 22 12 22C6.48 22 2 17.52 2 12ZM4 12C4 16.41 7.59 20 12 20C16.41 20 20 16.41 20 12C20 7.59 16.41 4 12 4C7.59 4 4 7.59 4 12Z" fill="#0D0D0D"/>
<path fill-rule="evenodd" clip-rule="evenodd" d="M11.2929 6.29289C11.6834 5.90237 12.3166 5.90237 12.7071 6.29289L14.2071 7.79289C14.5976 8.18342 14.5976 8.81658 14.2071 9.20711C13.8799 9.53429 13.3824 9.58736 13 9.36631V12.5C13 12.7884 12.8755 13.0627 12.6585 13.2526L8.6585 16.7526C8.24287 17.1163 7.61111 17.0741 7.24742 16.6585C6.88374 16.2429 6.92586 15.6111 7.3415 15.2474L11 12.0462V9.36631C10.6176 9.58736 10.1201 9.53429 9.79289 9.20711C9.40237 8.81658 9.40237 8.18342 9.79289 7.79289L11.2929 6.29289ZM13.2474 13.5915C13.6111 13.1759 14.2429 13.1337 14.6585 13.4974L16.6585 15.2474C17.0741 15.6111 17.1163 16.2429 16.7526 16.6585C16.3889 17.0741 15.7571 17.1163 15.3415 16.7526L13.3415 15.0026C12.9259 14.6389 12.8837 14.0071 13.2474 13.5915Z" fill="#0D0D0D"/>
</svg>
